<?xml version="1.0" encoding="UTF-8" standalone="no" ?>
<!DOCTYPE svg PUBLIC "-//W3C//DTD SVG 1.1//EN" "http://www.w3.org/Graphics/SVG/1.1/DTD/svg11.dtd">
<svg xmlns="http://www.w3.org/2000/svg" xmlns:xlink="http://www.w3.org/1999/xlink" version="1.1" width="381.0998901367188" height="132.86" xml:space="preserve">
<desc>Created with Fabric.js 1.6.0-rc.1</desc>
<defs></defs>
<g style="stroke: none; stroke-width: 1; stroke-dasharray: none; stroke-linecap: butt; stroke-linejoin: miter; stroke-miterlimit: 10; fill: none; fill-rule: nonzero; opacity: 1;" transform="translate(10 9.999999999999993) scale(0.23 0.22)" >
  <path d="M 256 501.333 c 135.126 0 245.333 -110.208 245.333 -245.33 c 0 -135.126 -110.208 -245.333 -245.333 -245.333 S 10.667 120.877 10.667 256.002 C 10.667 391.125 120.874 501.333 256 501.333 z" style="stroke: none; stroke-width: 1; stroke-dasharray: none; stroke-linecap: butt; stroke-linejoin: miter; stroke-miterlimit: 10; fill: #f7ff19; fill-rule: nonzero; opacity: 1;" transform=" matrix(1 0 0 1 0 0) " stroke-linecap="round" />
  <polygon points="263.23,234.34 358.44,234.34 321.82,277.66 201.1,420.48 248.77,277.66 153.56,277.66 190.18,234.34 310.9,91.53 " style="stroke: none; stroke-width: 1; stroke-dasharray: none; stroke-linecap: butt; stroke-linejoin: miter; stroke-miterlimit: 10; fill: #f20505; fill-rule: nonzero; opacity: 1;" transform="  matrix(1 0 0 1 0 0) "/>
  <path d="M 256 0.002 c -141.159 0 -256 114.842 -256 256 s 114.841 255.997 256 255.997 s 256 -114.84 256 -255.997 C 512 114.844 397.159 0.002 256 0.002 z M 256 490.666 c -129.396 0 -234.667 -105.27 -234.667 -234.665 C 21.333 126.606 126.604 21.335 256 21.335 c 129.397 0 234.667 105.271 234.667 234.667 C 490.667 385.396 385.397 490.666 256 490.666 z" style="stroke: none; stroke-width: 1; stroke-dasharray: none; stroke-linecap: butt; stroke-linejoin: miter; stroke-miterlimit: 10; fill: #000003; fill-rule: nonzero; opacity: 1;" transform=" matrix(1 0 0 1 0 0) " stroke-linecap="round" />
  <path d="M 368.114 229.851 c -1.748 -3.766 -5.523 -6.176 -9.675 -6.176 h -80.405 l 42.983 -128.773 c 1.62 -4.851 -0.432 -10.171 -4.892 -12.676 c -4.46 -2.507 -10.069 -1.493 -13.372 2.413 l -157.34 186.134 c -2.682 3.171 -3.278 7.61 -1.53 11.376 c 1.749 3.766 5.524 6.177 9.676 6.177 h 80.404 l -42.983 128.773 c -1.619 4.851 0.433 10.171 4.893 12.676 c 1.642 0.923 3.439 1.368 5.22 1.368 c 3.057 0 6.066 -1.313 8.153 -3.781 l 157.34 -186.134 C 369.266 238.056 369.862 233.618 368.114 229.851 z M 228.796 371.187 l 30.092 -90.151 c 1.086 -3.253 0.541 -6.83 -1.463 -9.612 c -2.004 -2.783 -5.225 -4.432 -8.654 -4.432 h -72.226 l 106.658 -126.178 l -30.091 90.149 c -1.086 3.252 -0.542 6.83 1.462 9.612 c 2.005 2.783 5.226 4.432 8.655 4.432 h 72.227 L 228.796 371.187 z" style="stroke: none; stroke-width: 1; stroke-dasharray: none; stroke-linecap: butt; stroke-linejoin: miter; stroke-miterlimit: 10; fill: #000003; fill-rule: nonzero; opacity: 1;" transform=" matrix(1 0 0 1 0 0) " stroke-linecap="round" />
  <path d="M 213.849 57.481 c -1.524 -5.691 -7.373 -9.07 -13.063 -7.542 C 127.4 69.6 69.599 127.402 49.936 200.787 c -6.605 24.653 -8.727 50.036 -6.307 75.445 c 0.526 5.521 5.171 9.655 10.606 9.655 c 0.338 0 0.682 -0.016 1.024 -0.048 c 5.865 -0.559 10.165 -5.765 9.607 -11.63 c -2.178 -22.868 -0.269 -45.714 5.677 -67.902 C 88.239 140.262 140.26 88.24 206.306 70.544 C 211.997 69.02 215.374 63.17 213.849 57.481 z" style="stroke: none; stroke-width: 1; stroke-dasharray: none; stroke-linecap: butt; stroke-linejoin: miter; stroke-miterlimit: 10; fill: #000003; fill-rule: nonzero; opacity: 1;" transform=" matrix(1 0 0 1 0 0) " stroke-linecap="round" />
  <path d="M 468.369 235.767 c -0.558 -5.863 -5.757 -10.167 -11.63 -9.607 c -5.864 0.559 -10.165 5.765 -9.607 11.63 c 2.179 22.869 0.269 45.715 -5.676 67.903 c -17.697 66.044 -69.719 118.067 -135.764 135.765 c -5.691 1.525 -9.068 7.374 -7.542 13.063 c 1.277 4.766 5.587 7.908 10.296 7.908 c 0.914 0 1.843 -0.118 2.768 -0.366 c 73.383 -19.664 131.185 -77.466 150.848 -150.849 C 468.668 286.56 470.789 261.177 468.369 235.767 z" style="stroke: none; stroke-width: 1; stroke-dasharray: none; stroke-linecap: butt; stroke-linejoin: miter; stroke-miterlimit: 10; fill: #000003; fill-rule: nonzero; opacity: 1;" transform=" matrix(1 0 0 1 0 0) " stroke-linecap="round" />
  <path d="M 69.954 303.441 c -1.455 -5.708 -7.265 -9.158 -12.972 -7.699 c -5.709 1.456 -9.155 7.263 -7.699 12.972 c 0.213 0.837 0.431 1.674 0.656 2.51 c 1.28 4.762 5.587 7.9 10.293 7.9 c 0.916 0 1.849 -0.119 2.777 -0.369 c 5.69 -1.53 9.061 -7.381 7.532 -13.07 C 70.339 304.936 70.146 304.188 69.954 303.441 z" style="stroke: none; stroke-width: 1; stroke-dasharray: none; stroke-linecap: butt; stroke-linejoin: miter; stroke-miterlimit: 10; fill: #000003; fill-rule: nonzero; opacity: 1;" transform=" matrix(1 0 0 1 0 0) " stroke-linecap="round" />
  <path d="M 442.042 208.553 c 1.227 4.828 5.567 8.04 10.331 8.04 c 0.869 0 1.755 -0.108 2.637 -0.332 c 5.71 -1.452 9.161 -7.257 7.71 -12.966 c -0.212 -0.833 -0.431 -1.664 -0.652 -2.493 c -1.515 -5.692 -7.358 -9.076 -13.052 -7.563 c -5.693 1.516 -9.078 7.36 -7.563 13.052 C 441.651 207.044 441.85 207.797 442.042 208.553 z" style="stroke: none; stroke-width: 1; stroke-dasharray: none; stroke-linecap: butt; stroke-linejoin: miter; stroke-miterlimit: 10; fill: #000003; fill-rule: nonzero; opacity: 1;" transform=" matrix(1 0 0 1 0 0) " stroke-linecap="round" />
</g>
  <g transform="translate(250.5 78.11) scale(1.2 1.2)">
   <text font-family="Diogenes" font-size="40" font-style="italic" font-weight="bold" style="stroke: none; stroke-width: 1; stroke-dasharray: none; stroke-linecap: butt; stroke-linejoin: miter; stroke-miterlimit: 10; fill: #12100e; fill-rule: nonzero; opacity: 1;" ><tspan x="-101" y="8.98" style="stroke: none; stroke-width: 0; stroke-dasharray: none; stroke-linecap: butt; stroke-linejoin: miter; stroke-miterlimit: 4; fill: #12100e; fill-rule: ; opacity: 1;">S</tspan><tspan x="-84.48" y="8.98" style="stroke: none; stroke-width: 0; stroke-dasharray: none; stroke-linecap: butt; stroke-linejoin: miter; stroke-miterlimit: 4; fill: #12100e; fill-rule: ; opacity: 1;">u</tspan><tspan x="-66" y="8.98" style="stroke: none; stroke-width: 0; stroke-dasharray: none; stroke-linecap: butt; stroke-linejoin: miter; stroke-miterlimit: 4; fill: #12100e; fill-rule: ; opacity: 1;">m</tspan><tspan x="-33.56" y="8.98" style="stroke: none; stroke-width: 0; stroke-dasharray: none; stroke-linecap: butt; stroke-linejoin: miter; stroke-miterlimit: 4; fill: #12100e; fill-rule: ; opacity: 1;">i</tspan><tspan x="-26.52" y="8.98" style="stroke: none; stroke-width: 0; stroke-dasharray: none; stroke-linecap: butt; stroke-linejoin: miter; stroke-miterlimit: 4; fill: #12100e; fill-rule: ; opacity: 1;">t</tspan><tspan x="-9" y="8.98" style="stroke: none; stroke-width: 0; stroke-dasharray: none; stroke-linecap: butt; stroke-linejoin: miter; stroke-miterlimit: 4; fill: #12100e; fill-rule: ; opacity: 1;"> </tspan><tspan x="3" y="8.98" style="stroke: none; stroke-width: 0; stroke-dasharray: none; stroke-linecap: butt; stroke-linejoin: miter; stroke-miterlimit: 4; fill: #12100e; fill-rule: ; opacity: 1;">S</tspan><tspan x="19.52" y="8.98" style="stroke: none; stroke-width: 0; stroke-dasharray: none; stroke-linecap: butt; stroke-linejoin: miter; stroke-miterlimit: 4; fill: #12100e; fill-rule: ; opacity: 1;">h</tspan><tspan x="38.64" y="8.98" style="stroke: none; stroke-width: 0; stroke-dasharray: none; stroke-linecap: butt; stroke-linejoin: miter; stroke-miterlimit: 4; fill: #12100e; fill-rule: ; opacity: 1;">i</tspan><tspan x="45.68" y="8.98" style="stroke: none; stroke-width: 0; stroke-dasharray: none; stroke-linecap: butt; stroke-linejoin: miter; stroke-miterlimit: 4; fill: #12100e; fill-rule: ; opacity: 1;">n</tspan><tspan x="65.28" y="8.98" style="stroke: none; stroke-width: 0; stroke-dasharray: none; stroke-linecap: butt; stroke-linejoin: miter; stroke-miterlimit: 4; fill: #12100e; fill-rule: ; opacity: 1;">d</tspan><tspan x="83" y="8.98" style="stroke: none; stroke-width: 0; stroke-dasharray: none; stroke-linecap: butt; stroke-linejoin: miter; stroke-miterlimit: 4; fill: #12100e; fill-rule: ; opacity: 1;">e</tspan></text>
 </g>
</svg>